<svg xmlns="http://www.w3.org/2000/svg" width="80" height="80" viewBox="0 0 80 80" version="1.1"><path d="M 24.147 26.968 C 21.202 27.429, 18.354 28.246, 17.818 28.782 C 16.850 29.750, 20.719 48.256, 23.148 54.282 C 23.765 55.812, 24.057 57.277, 23.797 57.537 C 22.860 58.474, 16.439 55.671, 13.663 53.114 C 11.252 50.893, 10.900 49.930, 11.322 46.713 C 11.596 44.629, 13.031 41.337, 14.511 39.397 C 15.991 37.456, 16.995 35.662, 16.743 35.409 C 15.966 34.633, 7.602 38.627, 5.828 40.620 C 2.871 43.944, 2.681 47.231, 5.228 51.010 C 8.466 55.815, 14.397 58.963, 20.250 58.984 C 23.730 58.996, 25.563 59.563, 27.104 61.104 C 29.789 63.789, 33.455 63.159, 39.547 58.968 L 43.999 55.905 47.749 58.890 C 54.978 64.642, 60.145 64.187, 63.086 57.537 C 65.426 52.248, 70.046 33.194, 69.630 30.548 C 69.450 29.404, 68.119 28.228, 66.412 27.705 C 62.428 26.485, 30.753 25.933, 24.147 26.968 M 30.581 43.022 C 37.226 49.610, 43.123 55, 43.685 55 C 44.248 55, 50.287 49.611, 57.104 43.023 L 69.500 31.047 63.500 31.773 C 55.751 32.712, 31.096 32.711, 24 31.772 L 18.500 31.045 30.581 43.022" stroke="none" fill="#097fb4" fill-rule="evenodd"/><path d="M 0 40.011 L 0 80.023 40.250 79.761 L 80.500 79.500 80.761 39.750 L 81.023 0 40.511 0 L 0 0 0 40.011 M 0.456 40.500 C 0.456 62.500, 0.588 71.358, 0.749 60.183 C 0.910 49.009, 0.910 31.009, 0.749 20.183 C 0.587 9.358, 0.455 18.500, 0.456 40.500 M 24.147 26.968 C 21.202 27.429, 18.354 28.246, 17.818 28.782 C 16.850 29.750, 20.719 48.256, 23.148 54.282 C 23.765 55.812, 24.057 57.277, 23.797 57.537 C 22.860 58.474, 16.439 55.671, 13.663 53.114 C 11.252 50.893, 10.900 49.930, 11.322 46.713 C 11.596 44.629, 13.031 41.337, 14.511 39.397 C 15.991 37.456, 16.995 35.662, 16.743 35.409 C 15.966 34.633, 7.602 38.627, 5.828 40.620 C 2.871 43.944, 2.681 47.231, 5.228 51.010 C 8.466 55.815, 14.397 58.963, 20.250 58.984 C 23.730 58.996, 25.563 59.563, 27.104 61.104 C 29.789 63.789, 33.455 63.159, 39.547 58.968 L 43.999 55.905 47.749 58.890 C 54.978 64.642, 60.145 64.187, 63.086 57.537 C 65.426 52.248, 70.046 33.194, 69.630 30.548 C 69.450 29.404, 68.119 28.228, 66.412 27.705 C 62.428 26.485, 30.753 25.933, 24.147 26.968 M 30.581 43.022 C 37.226 49.610, 43.123 55, 43.685 55 C 44.248 55, 50.287 49.611, 57.104 43.023 L 69.500 31.047 63.500 31.773 C 55.751 32.712, 31.096 32.711, 24 31.772 L 18.500 31.045 30.581 43.022" stroke="none" fill="#f7f5f4" fill-rule="evenodd"/></svg>