<?xml version="1.0" standalone="no"?>
<!DOCTYPE svg PUBLIC "-//W3C//DTD SVG 20010904//EN"
 "http://www.w3.org/TR/2001/REC-SVG-20010904/DTD/svg10.dtd">
<svg version="1.0" xmlns="http://www.w3.org/2000/svg"
 width="283.000000pt" height="283.000000pt" viewBox="0 0 283.000000 283.000000"
 preserveAspectRatio="xMidYMid meet">
<metadata>
Created by potrace 1.16, written by Peter Selinger 2001-2019
</metadata>
<g transform="translate(0.000000,283.000000) scale(0.100000,-0.100000)"
fill="#000000" stroke="none">
<path d="M1190 2137 c-3 -2 -59 -7 -125 -11 -216 -11 -407 -43 -446 -75 -21
-17 -21 -18 -4 -86 9 -39 21 -90 26 -115 62 -289 146 -597 194 -704 14 -31 20
-56 15 -56 -31 0 -177 47 -247 80 -152 71 -220 176 -195 299 21 99 85 217 180
329 44 53 44 53 16 46 -133 -32 -287 -110 -356 -181 -83 -85 -106 -169 -71
-263 79 -214 372 -375 617 -339 73 11 79 10 89 -7 24 -45 95 -102 137 -109 54
-9 124 2 175 27 40 21 186 115 195 127 3 4 24 21 47 39 l42 33 63 -52 c35 -29
96 -74 136 -100 248 -162 371 -107 480 217 50 145 68 219 137 539 14 66 33
149 41 185 l15 65 -26 21 c-38 30 -162 55 -390 79 -69 8 -739 19 -745 12z
m425 -17 c-7 -12 7 -13 20 -1 13 11 334 -5 455 -23 97 -15 166 -34 125 -35
-27 -1 -153 -62 -138 -68 6 -2 29 5 50 15 21 11 64 28 95 37 54 18 58 18 84 0
26 -17 27 -18 9 -32 -27 -19 -71 -29 -226 -55 -125 -20 -168 -22 -614 -22
-452 -1 -488 0 -620 22 -174 28 -194 33 -225 55 -29 21 -20 30 45 48 22 6 54
15 71 20 42 12 78 11 92 -3 9 -9 12 -8 12 4 0 20 54 27 286 37 281 12 486 13
479 1z m718 -122 c-8 -14 -9 -19 -23 -93 -16 -87 -58 -281 -95 -431 -31 -125
-48 -180 -108 -351 -7 -18 -15 -33 -19 -33 -5 0 -8 -6 -8 -14 0 -7 -19 -34
-41 -60 -42 -48 -93 -76 -136 -76 -34 0 -130 29 -146 43 -7 7 -30 21 -51 32
-43 22 -83 51 -162 116 l-50 42 100 91 c83 73 736 719 717 708 -3 -2 -139
-135 -301 -296 -296 -293 -515 -496 -533 -496 -16 0 -229 201 -530 503 -159
159 -291 287 -293 285 -5 -6 626 -631 729 -722 74 -67 76 -70 60 -88 -28 -31
-143 -113 -208 -148 -33 -18 -64 -36 -70 -40 -16 -12 -104 -20 -145 -14 -84
14 -164 136 -231 351 -30 97 -87 324 -129 518 -12 55 -26 115 -30 132 -8 32
-7 33 18 27 15 -3 34 -8 42 -11 28 -9 185 -32 305 -44 157 -16 793 -16 945 0
225 23 362 49 375 72 4 5 11 9 16 9 6 0 7 -6 2 -12z"/>
<path d="M1097 702 c-10 -10 -17 -31 -17 -45 0 -17 -5 -27 -15 -27 -8 0 -15
-9 -15 -20 0 -11 7 -20 15 -20 12 0 15 -14 15 -70 0 -68 1 -70 25 -70 24 0 25
2 25 69 0 61 2 69 21 74 39 10 49 -2 49 -59 0 -41 5 -59 20 -74 21 -21 29 -23
54 -14 24 9 20 44 -4 44 -17 0 -20 7 -20 50 0 43 3 50 20 50 13 0 20 7 20 20
0 13 -7 20 -20 20 -15 0 -20 7 -20 26 0 21 -4 25 -22 22 -15 -2 -24 -11 -26
-24 -6 -40 -72 -38 -72 2 0 17 5 24 20 24 13 0 20 7 20 20 0 26 -50 28 -73 2z"/>
<path d="M685 675 c-43 -43 -25 -85 54 -127 21 -12 31 -24 29 -35 -3 -15 -13
-18 -56 -17 -44 2 -52 -1 -52 -16 0 -23 59 -45 92 -35 38 12 68 46 68 77 0 29
-41 78 -65 78 -20 0 -45 34 -36 49 7 10 20 12 50 7 30 -5 41 -3 41 7 0 43 -86
52 -125 12z"/>
<path d="M1310 680 c0 -16 7 -20 35 -20 l35 0 0 -105 0 -105 25 0 25 0 0 105
0 105 35 0 c28 0 35 4 35 20 0 19 -7 20 -95 20 -88 0 -95 -1 -95 -20z"/>
<path d="M910 633 c-39 -14 -60 -46 -60 -90 0 -58 12 -79 54 -93 86 -28 146
41 120 138 -10 37 -71 61 -114 45z"/>
<path d="M1560 633 c-27 -10 -39 -24 -34 -38 4 -10 12 -10 33 -2 16 6 35 7 45
4 30 -12 16 -33 -31 -48 -43 -12 -48 -17 -51 -46 -4 -41 35 -72 72 -55 12 5
34 8 49 5 l27 -5 0 80 c0 56 -4 83 -14 91 -17 14 -75 23 -96 14z"/>
<path d="M1788 626 c-16 -8 -28 -11 -28 -5 0 5 -9 9 -20 9 -19 0 -20 -7 -20
-125 l0 -125 25 0 c22 0 25 4 25 40 0 38 1 39 25 30 56 -21 99 22 97 100 0 35
-6 49 -27 67 -31 27 -40 28 -77 9z"/>
<path d="M2000 623 c-17 -12 -25 -13 -28 -5 -2 7 -12 12 -23 12 -19 0 -19 -7
-17 -122 3 -119 4 -123 26 -126 20 -3 22 1 22 38 0 36 2 41 18 35 40 -17 50
-15 78 8 26 22 29 32 29 82 0 48 -4 60 -24 76 -29 23 -49 24 -81 2z"/>
<path d="M2170 627 c-17 -9 -26 -22 -28 -44 -3 -28 1 -34 37 -53 23 -11 41
-25 41 -31 0 -16 -30 -22 -56 -11 -21 10 -24 9 -24 -8 0 -24 41 -43 75 -34 66
16 70 82 8 112 -44 21 -43 37 2 36 39 -1 48 19 16 36 -25 13 -40 13 -71 -3z"/>
</g>
</svg>
