<?xml version="1.0" standalone="no"?>
<!DOCTYPE svg PUBLIC "-//W3C//DTD SVG 20010904//EN"
 "http://www.w3.org/TR/2001/REC-SVG-20010904/DTD/svg10.dtd">
<svg version="1.0" xmlns="http://www.w3.org/2000/svg"
 width="170.000000pt" height="48.000000pt" viewBox="0 0 170.000000 48.000000"
 preserveAspectRatio="xMidYMid meet">

<g transform="translate(0.000000,48.000000) scale(0.100000,-0.100000)"
fill="#000000" stroke="none">
<path d="M467 402 c-10 -10 -17 -31 -17 -45 0 -17 -5 -27 -15 -27 -8 0 -15 -7
-15 -15 0 -9 7 -18 15 -21 11 -5 15 -23 15 -75 0 -67 1 -69 25 -69 24 0 25 2
25 70 0 56 3 70 15 70 8 0 15 5 15 10 0 6 8 5 20 -2 16 -10 20 -24 20 -70 0
-65 18 -91 59 -86 32 4 43 38 12 38 -19 0 -21 6 -21 55 0 48 2 55 20 55 13 0
20 7 20 20 0 13 -7 20 -20 20 -15 0 -20 7 -20 25 0 20 -5 25 -25 25 -20 0 -25
-5 -25 -24 0 -24 -20 -35 -52 -28 -26 5 -24 52 2 52 13 0 20 7 20 20 0 26 -50
28 -73 2z"/>
<path d="M82 390 c-12 -5 -27 -20 -33 -34 -19 -40 -4 -71 51 -105 54 -33 58
-42 35 -61 -15 -12 -41 -10 -78 5 -16 6 -18 4 -15 -16 4 -30 42 -44 92 -35 29
6 40 14 53 41 22 46 8 75 -49 106 -46 26 -60 55 -32 66 9 3 30 1 45 -4 27 -10
29 -9 29 12 0 32 -48 44 -98 25z"/>
<path d="M680 370 c0 -16 7 -20 35 -20 l35 0 0 -101 c0 -97 1 -100 21 -97 21
3 22 8 20 101 l-2 97 35 0 c29 0 36 4 36 20 0 19 -7 20 -90 20 -83 0 -90 -1
-90 -20z"/>
<path d="M257 320 c-50 -39 -43 -150 10 -171 77 -29 133 9 133 91 0 41 -5 56
-25 75 -30 31 -82 33 -118 5z m94 -47 c15 -40 2 -82 -28 -89 -44 -11 -69 47
-43 97 16 29 58 25 71 -8z"/>
<path d="M908 329 c-36 -20 -21 -39 29 -36 37 1 48 -2 51 -14 2 -12 -7 -18
-40 -22 -64 -9 -91 -63 -50 -100 20 -19 67 -23 77 -7 3 6 17 7 31 4 l24 -6 0
86 c0 74 -3 87 -19 96 -25 13 -81 13 -103 -1z m82 -112 c0 -19 -21 -37 -42
-37 -18 0 -25 29 -11 43 12 12 53 7 53 -6z"/>
<path d="M1142 324 c-12 -8 -22 -10 -22 -5 0 6 -9 11 -20 11 -20 0 -20 -5 -18
-127 3 -120 4 -128 23 -128 16 0 21 8 25 45 3 28 8 40 13 33 15 -23 64 -15 86
13 33 42 26 141 -13 166 -18 12 -50 9 -74 -8z m54 -48 c15 -61 -16 -115 -50
-87 -19 16 -21 82 -4 99 20 20 47 14 54 -12z"/>
<path d="M1352 324 c-12 -8 -22 -10 -22 -5 0 6 -9 11 -20 11 -20 0 -20 -5 -18
-127 3 -120 4 -128 23 -128 16 0 21 8 25 45 3 28 8 40 13 33 13 -21 56 -15 82
12 20 19 25 34 25 73 0 84 -52 125 -108 86z m54 -48 c15 -61 -16 -115 -50 -87
-19 16 -21 82 -4 99 20 20 47 14 54 -12z"/>
<path d="M1512 324 c-22 -15 -29 -48 -14 -70 4 -6 22 -19 40 -28 17 -9 32 -24
32 -33 0 -13 -7 -14 -40 -9 -35 5 -40 4 -40 -13 0 -21 18 -31 56 -31 37 0 61
16 68 45 9 34 -4 55 -44 74 -40 20 -36 37 8 34 20 -2 32 2 32 10 0 36 -58 49
-98 21z"/>
</g>
</svg>
